<svg width="429" height="92.44727220787831" viewBox="0 0 369.9130434782609 79.71433991533685" class="css-1j8o68f"><defs id="SvgjsDefs7884"></defs><g id="SvgjsG7885" featurekey="1p4tPl-0" transform="matrix(0.1556921722268851,0,0,0.1556921722268851,-4.771780607666788,-2.958334793128452)" fill="#1677ff"><path xmlns="http://www.w3.org/2000/svg" d="M408.907,155.177c-8.793-7.847-19.864-14.913-32.45-20.733c8.768-15.833,17.006-36.019,21.062-58.893  c5.786,18.762,15.91,42.456,33.376,63.288c35.675,42.549,88.455,57.035,88.455,57.035s-5.057-54.498-40.73-97.047  c-26.14-31.177-61.46-47.286-78.476-53.669c-0.033-5.729-0.37-11.562-1.059-17.48c-0.626-5.381-5.51-9.237-10.875-8.61  c-5.381,0.625-9.235,5.494-8.611,10.875c4.556,39.196-8.087,74.102-21.472,97.279c-51.642-17.044-119.648-13.595-164.914,35.059  c-60.554,65.088-64.838,157.651-116.282,197.46c-43.921,33.988-51.681,55.513-43.309,92.051  c11.669,50.934,146.731,133.881,295.927,27.836C478.747,373.583,460.071,200.837,408.907,155.177z"></path></g><g id="SvgjsG7886" featurekey="dYASrj-0" transform="matrix(3.1820752515300543,0,0,3.1820752515300543,91.86330915273685,-7.946903993776626)" fill="#1677ff"><path d="M1.3 20 l0 -10.46 l1.66 0 l0 1.48 l0.04 0 c0.38 -0.56 1.28 -1.78 3.16 -1.78 s2.48 1.14 2.78 1.7 c0.88 -0.98 1.58 -1.7 3.2 -1.7 c1.12 0 3.24 0.58 3.24 3.52 l0 7.24 l-1.76 0 l0 -6.76 c0 -1.44 -0.44 -2.42 -1.94 -2.42 c-1.48 0 -2.46 1.4 -2.46 2.8 l0 6.38 l-1.76 0 l0 -7.24 c0 -0.88 -0.34 -1.94 -1.64 -1.94 c-1 0 -2.76 0.64 -2.76 3.48 l0 5.7 l-1.76 0 z M19.52 12.719999999999999 l-1.62 0 c0.08 -2.5 1.74 -3.48 4.32 -3.48 c0.84 0 3.88 0.24 3.88 2.92 l0 6.02 c0 0.44 0.22 0.62 0.58 0.62 c0.16 0 0.38 -0.04 0.58 -0.08 l0 1.28 c-0.3 0.08 -0.56 0.2 -0.96 0.2 c-1.56 0 -1.8 -0.8 -1.86 -1.6 c-0.68 0.74 -1.74 1.7 -3.78 1.7 c-1.92 0 -3.28 -1.22 -3.28 -3.02 c0 -0.88 0.26 -2.92 3.18 -3.28 l2.9 -0.36 c0.42 -0.04 0.92 -0.2 0.92 -1.24 c0 -1.1 -0.8 -1.7 -2.46 -1.7 c-2 0 -2.28 1.22 -2.4 2.02 z M24.34 16.38 l0 -1.72 c-0.28 0.22 -0.72 0.38 -2.9 0.66 c-0.86 0.12 -2.24 0.38 -2.24 1.7 c0 1.14 0.58 1.82 1.9 1.82 c1.64 0 3.24 -1.06 3.24 -2.46 z M37.6 12.879999999999999 l0 7.12 l-1.76 0 l0 -6.44 c0 -1.82 -0.52 -2.74 -2.24 -2.74 c-1 0 -2.76 0.64 -2.76 3.48 l0 5.7 l-1.76 0 l0 -10.46 l1.66 0 l0 1.48 l0.04 0 c0.38 -0.56 1.36 -1.78 3.16 -1.78 c1.62 0 3.66 0.66 3.66 3.64 z M41.52 14.74 c0 2.3 0.9 4.04 2.82 4.04 c1.12 0 2.86 -0.74 2.86 -3.52 c0 -1.7 -0.28 -4.44 -2.82 -4.44 c-2.72 0 -2.86 2.58 -2.86 3.92 z M48.88000000000001 9.54 l0 9.6 c0 1.5 -0.02 5.26 -4.86 5.26 c-1.24 0 -3.66 -0.34 -4 -3.12 l1.76 0 c0.32 1.66 1.94 1.66 2.36 1.66 c3.04 0 2.98 -2.44 2.98 -3.68 l0 -0.44 l-0.04 0 l0 0.08 c-0.46 0.74 -1.38 1.4 -2.78 1.4 c-3.56 0 -4.6 -3.34 -4.6 -5.84 c0 -2.94 1.58 -5.22 4.36 -5.22 c1.9 0 2.7 1.18 3.12 1.78 l0.04 0 l0 -1.48 l1.66 0 z M50.72000000000001 14.76 c0 -2.7 1.52 -5.52 4.86 -5.52 s4.86 2.82 4.86 5.52 s-1.52 5.52 -4.86 5.52 s-4.86 -2.82 -4.86 -5.52 z M52.54000000000001 14.76 c0 1.4 0.52 4 3.04 4 s3.04 -2.6 3.04 -4 s-0.52 -4 -3.04 -4 s-3.04 2.6 -3.04 4 z M66.92000000000002 13.559999999999999 l0 1.8 l-4.9 0 l0 -1.8 l4.9 0 z M73.58000000000001 13.440000000000001 l4.24 6.56 l-2.26 0 l-3.26 -5.28 l-1.46 1.32 l0 3.96 l-1.7 0 l0 -14.36 l1.7 0 l0 8.32 l4.5 -4.42 l2.24 0 z M80.9 9.54 l0 10.46 l-1.76 0 l0 -10.46 l1.76 0 z M80.9 7.640000000000001 l-1.76 0 l0 -2 l1.76 0 l0 2 z M87.38000000000001 11 l-1.68 0 l0 6.8 c0 0.82 0.7 0.82 1.06 0.82 l0.62 0 l0 1.38 c-0.64 0.06 -1.14 0.14 -1.32 0.14 c-1.74 0 -2.12 -0.98 -2.12 -2.24 l0 -6.9 l-1.42 0 l0 -1.46 l1.42 0 l0 -2.92 l1.76 0 l0 2.92 l1.68 0 l0 1.46 z"></path></g></svg>